<svg xmlns="http://www.w3.org/2000/svg" viewBox="0 0 189.52 68.81"><defs><style>.cls-1,.cls-7{fill:#e2eaf5;}.cls-1,.cls-4,.cls-5,.cls-6,.cls-7{stroke:#397ddb;}.cls-1,.cls-2,.cls-4,.cls-5,.cls-6,.cls-7{stroke-miterlimit:10;}.cls-1,.cls-4,.cls-6,.cls-7{stroke-width:3px;}.cls-2,.cls-5,.cls-6{fill:none;}.cls-2{stroke:#000;}.cls-2,.cls-5{stroke-width:4px;}.cls-3,.cls-9{fill:#397ddb;}.cls-4{fill:#eef6ff;}.cls-5,.cls-6,.cls-7{stroke-linecap:round;}.cls-8{fill:#97c5eb;}.cls-9{font-size:7.95px;font-family:Montserrat-Regular, Montserrat;letter-spacing:-0.05em;}.cls-10{letter-spacing:-0.06em;}.cls-11{letter-spacing:-0.06em;}</style></defs><title>Asset 2</title><g id="Layer_2" data-name="Layer 2"><g id="Layer_1-2" data-name="Layer 1"><path class="cls-1" d="M51.75,60.67H26.41l-8.93,5.46V60.67H9.38A3.38,3.38,0,0,1,6,57.29V40.36A22.41,22.41,0,0,1,25.09,18.19h0a36.88,36.88,0,0,1,10.94,0h0A22.41,22.41,0,0,1,55.12,40.36V57.29A3.38,3.38,0,0,1,51.75,60.67Z"/><path class="cls-2" d="M43,26"/><rect class="cls-3" y="35.05" width="6.5" height="13.45" rx="1.89" ry="1.89"/><rect class="cls-3" x="55" y="34.05" width="6.5" height="13.45" rx="1.89" ry="1.89"/><rect class="cls-4" x="16" y="31.5" width="29" height="9" rx="4.5" ry="4.5"/><line class="cls-5" x1="35" y1="50.3" x2="25" y2="50.3"/><line class="cls-6" x1="38.56" y1="17.79" x2="42.42" y2="9.92"/><circle class="cls-7" cx="45" cy="5.5" r="4"/><line class="cls-6" x1="23" y1="17.79" x2="19.14" y2="9.92"/><circle class="cls-7" cx="16.56" cy="5.5" r="4"/><path class="cls-3" d="M75.11,25.25V38.56l2,.34a.48.48,0,0,1,.4.54v1.26h-7V39.45a.5.5,0,0,1,.44-.54l1.67-.34V21.82l-1.67-.34a.5.5,0,0,1-.44-.54V19.67h4.21a1.83,1.83,0,0,1,.59.07.85.85,0,0,1,.4.41L83,33.1a9.83,9.83,0,0,1,.66,1.53,11.93,11.93,0,0,1,.68-1.54l7.12-12.93a.84.84,0,0,1,.4-.41,1.79,1.79,0,0,1,.59-.07h4.23v1.26a.5.5,0,0,1-.46.54l-1.67.34V38.56l1.67.34a.5.5,0,0,1,.46.54v1.26h-7V39.45A.49.49,0,0,1,90,38.9l2-.34V25.25q0-.65.06-1.38L84.86,37a1.13,1.13,0,0,1-1,.66h-.41a1.13,1.13,0,0,1-1-.66L75,23.83A12.39,12.39,0,0,1,75.11,25.25Z"/><path class="cls-3" d="M107.64,25.57a3.94,3.94,0,0,1,2,.53l-.34,2q-.1.37-.38.37a2.37,2.37,0,0,1-.7-.14,4,4,0,0,0-1.19-.14q-2.55,0-3.82,3.1v7.32l1.67.34a.5.5,0,0,1,.44.54v1.26H98.52V39.45A.5.5,0,0,1,99,38.9l1.67-.34V28L99,27.64a.5.5,0,0,1-.44-.54V25.84h3.61a.83.83,0,0,1,.59.16,1,1,0,0,1,.22.56l.18,2.32Q104.75,25.57,107.64,25.57Z"/><path class="cls-3" d="M109.74,38.37a1.84,1.84,0,0,1,.38-.59,1.82,1.82,0,0,1,1.3-.54,1.79,1.79,0,0,1,.72.15,1.87,1.87,0,0,1,.59.4,1.78,1.78,0,0,1,.39.59,2,2,0,0,1,0,1.45,1.79,1.79,0,0,1-.39.58,1.78,1.78,0,0,1-.59.39,1.92,1.92,0,0,1-1.44,0,1.72,1.72,0,0,1-.58-.39,1.87,1.87,0,0,1-.38-.58,1.94,1.94,0,0,1,0-1.45Z"/><path class="cls-3" d="M133.38,39.44v1.27h-3a1.25,1.25,0,0,1-1.15-.6l-5.46-7.52a1.6,1.6,0,0,0-.54-.51,2,2,0,0,0-.88-.15h-1.87v6.64l1.67.33a.56.56,0,0,1,.45.54v1.27h-7.07V39.44a.56.56,0,0,1,.45-.54l1.67-.33V21.82l-1.67-.33a.56.56,0,0,1-.45-.54V19.67h7.78a13,13,0,0,1,3.45.4,6.59,6.59,0,0,1,2.4,1.17,4.68,4.68,0,0,1,1.4,1.84A6.17,6.17,0,0,1,131,25.5a6.06,6.06,0,0,1-.35,2.08,5.52,5.52,0,0,1-1,1.74A6.1,6.1,0,0,1,128,30.64a8.06,8.06,0,0,1-2.18.82,3,3,0,0,1,.94.9l4.57,6.22,1.65.33A.56.56,0,0,1,133.38,39.44Zm-8.06-9.88a4.47,4.47,0,0,0,1.58-.85,3.54,3.54,0,0,0,1-1.31,4.29,4.29,0,0,0,.32-1.69,3.35,3.35,0,0,0-1.24-2.83,6,6,0,0,0-3.69-1h-2.83v7.94h2.7A7.26,7.26,0,0,0,125.31,29.56Z"/><path class="cls-3" d="M143.3,26.05a5.55,5.55,0,0,1,2,1.29,5.89,5.89,0,0,1,1.28,2.08,8.07,8.07,0,0,1,.46,2.83,1.7,1.7,0,0,1-.13.82.55.55,0,0,1-.5.21h-9.89a8.19,8.19,0,0,0,.38,2.45,5,5,0,0,0,1,1.74,3.88,3.88,0,0,0,1.47,1,5,5,0,0,0,1.91.34,5.59,5.59,0,0,0,1.7-.23,8.08,8.08,0,0,0,1.23-.49,9.23,9.23,0,0,0,.86-.49,1.14,1.14,0,0,1,.59-.23.57.57,0,0,1,.5.25l.73,1a5,5,0,0,1-1.16,1,7.18,7.18,0,0,1-1.45.71,9.16,9.16,0,0,1-1.59.42,9.69,9.69,0,0,1-1.63.14,7.56,7.56,0,0,1-2.84-.52,6.23,6.23,0,0,1-2.25-1.53,7,7,0,0,1-1.48-2.49,10.14,10.14,0,0,1-.53-3.41,8.65,8.65,0,0,1,.48-2.91,6.85,6.85,0,0,1,1.37-2.34,6.33,6.33,0,0,1,2.19-1.56,7.18,7.18,0,0,1,2.91-.56A6.64,6.64,0,0,1,143.3,26.05Zm-5.39,2.57a5.15,5.15,0,0,0-1.35,3h8.09A5.3,5.3,0,0,0,144.4,30a3.72,3.72,0,0,0-.73-1.31,3.28,3.28,0,0,0-1.18-.85,4.53,4.53,0,0,0-4.57.79Z"/><path class="cls-3" d="M157.75,25.57a4.87,4.87,0,0,1,4.1,1.94,9.2,9.2,0,0,1,1.53,5.67,8.58,8.58,0,0,1-1.7,5.5,5.88,5.88,0,0,1-8.79.48V43.6l.8.16.87.18a.5.5,0,0,1,.44.54v1.26h-6.84V44.48a.5.5,0,0,1,.44-.54l1.67-.34V28l-1.67-.34a.5.5,0,0,1-.44-.54V25.84h3.67a.67.67,0,0,1,.7.54l.22,1.76A6.31,6.31,0,0,1,157.75,25.57Zm-1.44,13.31a3.81,3.81,0,0,0,3.24-1.48,6.92,6.92,0,0,0,1.12-4.23q0-5.49-3.79-5.49a5,5,0,0,0-4,2.25v7.19A4.08,4.08,0,0,0,156.31,38.89Z"/><path class="cls-3" d="M171.88,39.45v1.26H165V39.45a.5.5,0,0,1,.44-.54l1.67-.34V21.23l-1.67-.34a.5.5,0,0,1-.44-.54V19.09h4.73V38.56l1.67.34A.5.5,0,0,1,171.88,39.45Z"/><path class="cls-3" d="M189.52,25.84V27.1a.5.5,0,0,1-.44.54l-.78.16-.76.15L180.16,45.1a1,1,0,0,1-.94.65h-1.94l2.72-5.9-5.23-11.93-1.34-.26a.5.5,0,0,1-.44-.54V25.84h6.66V27.1a.5.5,0,0,1-.44.54L177.6,28l3.3,7.78a8.71,8.71,0,0,1,.4,1.31q.26-.87.44-1.32L185,28l-1.61-.32a.49.49,0,0,1-.42-.54V25.84h6.59Z"/><path class="cls-8" d="M77.56,54.44a2.73,2.73,0,0,1-1.07,1.86,3.44,3.44,0,0,1-1.08.54A4.64,4.64,0,0,1,74,57H69.75l.09-.72a.41.41,0,0,1,.35-.38h.08l.19,0,.37-.06.79-6.42-.35-.06-.18,0H71a.31.31,0,0,1-.26-.38l.09-.72h4a5.54,5.54,0,0,1,1.46.17,2.47,2.47,0,0,1,1,.47,1.55,1.55,0,0,1,.49.74,2.38,2.38,0,0,1,.06,1,2.09,2.09,0,0,1-.17.6,2,2,0,0,1-.35.53,2.57,2.57,0,0,1-.54.45,3.49,3.49,0,0,1-.75.34Q77.75,52.88,77.56,54.44Zm-1.62,0a1.32,1.32,0,0,0,0-.52.82.82,0,0,0-.24-.39,1.17,1.17,0,0,0-.47-.25,2.68,2.68,0,0,0-.73-.08H72.8l-.32,2.59h1.67a2.44,2.44,0,0,0,.78-.11,1.54,1.54,0,0,0,.53-.29,1.27,1.27,0,0,0,.32-.43A1.74,1.74,0,0,0,75.94,54.41Zm-3-2.38h1.32a2.4,2.4,0,0,0,1.31-.31,1.27,1.27,0,0,0,.55-1,1,1,0,0,0-.27-1,1.87,1.87,0,0,0-1.19-.29H73.26Z"/><path class="cls-8" d="M85,56.32l-.09.72H83.06a.32.32,0,0,1-.35-.28l0-.5a5.25,5.25,0,0,1-.45.36,3,3,0,0,1-.48.28,2.82,2.82,0,0,1-.53.18,2.64,2.64,0,0,1-.59.06,2.06,2.06,0,0,1-.89-.17,1.53,1.53,0,0,1-.6-.49,1.87,1.87,0,0,1-.31-.76,3.09,3.09,0,0,1,0-1L79.14,52l-.61-.11a.31.31,0,0,1-.26-.38l.09-.72H80.8l-.49,4a1.24,1.24,0,0,0,.16.89.87.87,0,0,0,.76.32,1.73,1.73,0,0,0,.76-.17,3,3,0,0,0,.71-.48L83.1,52l-.61-.11a.31.31,0,0,1-.26-.38l.09-.72h2.44l-.62,5.07.61.11A.31.31,0,0,1,85,56.32Z"/><path class="cls-8" d="M88.27,56.32l-.09.72H85.75l.15-1.21L86.37,52,86,51.92l-.18,0h-.08a.31.31,0,0,1-.26-.38l.09-.72H88l-.62,5.07.35.06.18,0H88A.31.31,0,0,1,88.27,56.32Zm.08-7a1.2,1.2,0,0,1-.25.3,1.19,1.19,0,0,1-.33.21,1,1,0,0,1-.39.08.85.85,0,0,1-.36-.08.82.82,0,0,1-.28-.21.85.85,0,0,1-.17-.3.84.84,0,0,1,0-.37,1,1,0,0,1,.12-.38,1.15,1.15,0,0,1,.24-.31,1.19,1.19,0,0,1,.33-.21,1,1,0,0,1,.38-.08A.88.88,0,0,1,88,48a.87.87,0,0,1,.28.21.84.84,0,0,1,.17.31.87.87,0,0,1,0,.38A.94.94,0,0,1,88.36,49.3Z"/><path class="cls-8" d="M91.75,56.32l-.09.72H89.23l.15-1.21.18-1.49.19-1.59.44-3.59-.35-.06-.18,0h-.07a.31.31,0,0,1-.26-.38l.09-.72h2.44l-1,7.88.35.06.18,0h.08A.31.31,0,0,1,91.75,56.32Z"/><path class="cls-8" d="M98.81,57H97a.41.41,0,0,1-.24-.07.27.27,0,0,1-.11-.21l-.05-.58a3.76,3.76,0,0,1-1,.7,2.56,2.56,0,0,1-1.19.27,1.89,1.89,0,0,1-.91-.21,1.77,1.77,0,0,1-.66-.62,2.62,2.62,0,0,1-.35-1,5,5,0,0,1,0-1.37,4.61,4.61,0,0,1,.35-1.3,3.73,3.73,0,0,1,.67-1,3,3,0,0,1,.93-.69,2.67,2.67,0,0,1,1.15-.25,2.11,2.11,0,0,1,.88.16,1.87,1.87,0,0,1,.61.45l.26-2.1-.35-.06-.18,0H96.8a.31.31,0,0,1-.26-.38l.09-.72h2.44l-1,7.87.31.06.16,0h.07a.31.31,0,0,1,.26.38ZM97,52.37a1.21,1.21,0,0,0-.51-.44,1.65,1.65,0,0,0-1.27,0,1.43,1.43,0,0,0-.52.39,2.24,2.24,0,0,0-.38.66,4.07,4.07,0,0,0-.22.95,4.18,4.18,0,0,0,0,.93,1.63,1.63,0,0,0,.18.62.84.84,0,0,0,.36.35,1.17,1.17,0,0,0,.52.11,1.67,1.67,0,0,0,.83-.2,2.77,2.77,0,0,0,.69-.56Z"/><path class="cls-8" d="M109.59,50.77l-.09.72a.41.41,0,0,1-.35.38l-.59.1-3.74,6.8a.7.7,0,0,1-.2.24.58.58,0,0,1-.34.08h-1.13l1.48-2.51L103.19,52l-.56-.1a.31.31,0,0,1-.26-.38l.09-.72h3.06l-.09.72a.41.41,0,0,1-.35.38l-.29.05.69,2.38a2.58,2.58,0,0,1,.08.33q0,.17,0,.34l.15-.34.17-.34,1.2-2.35-.4-.07a.31.31,0,0,1-.26-.38l.09-.72h3.06Z"/><path class="cls-8" d="M114.4,50.89a2.33,2.33,0,0,1,.9.64,2.45,2.45,0,0,1,.5,1,3.72,3.72,0,0,1,.06,1.34,4.18,4.18,0,0,1-.39,1.35,3.43,3.43,0,0,1-.75,1,3.2,3.2,0,0,1-1.06.65,3.66,3.66,0,0,1-1.3.23,3.24,3.24,0,0,1-1.25-.23,2.3,2.3,0,0,1-.9-.65,2.49,2.49,0,0,1-.5-1,3.71,3.71,0,0,1-.06-1.35,4.15,4.15,0,0,1,.39-1.34,3.37,3.37,0,0,1,.75-1,3.27,3.27,0,0,1,1.06-.64,3.7,3.7,0,0,1,1.31-.23A3.24,3.24,0,0,1,114.4,50.89Zm-.67,4.55a2.93,2.93,0,0,0,.57-1.54,2.5,2.5,0,0,0-.19-1.55,1.16,1.16,0,0,0-1.09-.53,1.53,1.53,0,0,0-1.24.54,2.94,2.94,0,0,0-.57,1.54,2.45,2.45,0,0,0,.19,1.54,1.18,1.18,0,0,0,1.11.53A1.51,1.51,0,0,0,113.72,55.45Z"/><path class="cls-8" d="M123.12,56.32,123,57h-1.85a.32.32,0,0,1-.35-.28l0-.5a5.32,5.32,0,0,1-.45.36,3,3,0,0,1-.48.28,2.82,2.82,0,0,1-.53.18,2.63,2.63,0,0,1-.59.06,2.07,2.07,0,0,1-.89-.17,1.53,1.53,0,0,1-.6-.49,1.85,1.85,0,0,1-.31-.76,3.11,3.11,0,0,1,0-1l.34-2.78-.61-.11a.31.31,0,0,1-.26-.38l.09-.72h2.44l-.49,4a1.23,1.23,0,0,0,.16.89.87.87,0,0,0,.76.32,1.73,1.73,0,0,0,.76-.17,3,3,0,0,0,.71-.48l.41-3.33-.61-.11a.31.31,0,0,1-.26-.38l.09-.72h2.44l-.62,5.07.61.11A.31.31,0,0,1,123.12,56.32Z"/><path class="cls-8" d="M128.63,50.86,128.3,52a.27.27,0,0,1-.1.16.3.3,0,0,1-.17,0,1,1,0,0,1-.25,0,1.63,1.63,0,0,0-.42,0,1.42,1.42,0,0,0-.84.26,2.36,2.36,0,0,0-.66.76l-.27,2.18L125.38,57h-1.51l.15-1.21.09-.72.05-.43.33-2.7-.61-.11a.31.31,0,0,1-.26-.38l.09-.72h1.81a.44.44,0,0,1,.31.08.45.45,0,0,1,.09.29v.76a3.59,3.59,0,0,1,.9-.92,1.84,1.84,0,0,1,1.06-.34A1.19,1.19,0,0,1,128.63,50.86Z"/><path class="cls-8" d="M138.08,53.86a4.64,4.64,0,0,1-.35,1.3,3.73,3.73,0,0,1-.67,1,3,3,0,0,1-.93.69,2.67,2.67,0,0,1-1.15.25,15.28,15.28,0,0,1-3-.34l.24-2,.7-5.66-.37-.06-.2,0h-.09a.31.31,0,0,1-.26-.38l.09-.72h2.49l-.44,3.59a3.54,3.54,0,0,1,.92-.63,2.64,2.64,0,0,1,1.13-.24,1.93,1.93,0,0,1,.91.21,1.76,1.76,0,0,1,.66.62,2.59,2.59,0,0,1,.35,1A4.92,4.92,0,0,1,138.08,53.86Zm-1.56,0a4.11,4.11,0,0,0,0-.93,1.61,1.61,0,0,0-.18-.62A.84.84,0,0,0,136,52a1.17,1.17,0,0,0-.52-.11,1.67,1.67,0,0,0-.83.2,2.78,2.78,0,0,0-.69.56l-.4,3.27a6.34,6.34,0,0,0,1.2.12,1.55,1.55,0,0,0,.63-.13,1.43,1.43,0,0,0,.52-.39,2.21,2.21,0,0,0,.38-.66A4,4,0,0,0,136.52,53.86Z"/><path class="cls-8" d="M143.42,50.89a2.33,2.33,0,0,1,.9.64,2.45,2.45,0,0,1,.5,1,3.72,3.72,0,0,1,.06,1.34,4.18,4.18,0,0,1-.39,1.35,3.43,3.43,0,0,1-.75,1,3.2,3.2,0,0,1-1.06.65,3.66,3.66,0,0,1-1.3.23,3.24,3.24,0,0,1-1.25-.23,2.3,2.3,0,0,1-.9-.65,2.49,2.49,0,0,1-.5-1,3.71,3.71,0,0,1-.06-1.35,4.15,4.15,0,0,1,.39-1.34,3.37,3.37,0,0,1,.75-1,3.28,3.28,0,0,1,1.06-.64,3.7,3.7,0,0,1,1.31-.23A3.24,3.24,0,0,1,143.42,50.89Zm-.67,4.55a2.93,2.93,0,0,0,.57-1.54,2.5,2.5,0,0,0-.19-1.55,1.16,1.16,0,0,0-1.09-.53,1.53,1.53,0,0,0-1.24.54,2.94,2.94,0,0,0-.57,1.54,2.45,2.45,0,0,0,.19,1.54,1.18,1.18,0,0,0,1.11.53A1.51,1.51,0,0,0,142.74,55.45Z"/><path class="cls-8" d="M146.15,56.68a1.61,1.61,0,0,1-.28-1.28l.43-3.51h-.64a.25.25,0,0,1-.26-.32l.07-.6,1-.17L147,49.1a.36.36,0,0,1,.14-.19.39.39,0,0,1,.23-.07h.78l-.24,2h1.65l-.13,1.08h-1.65l-.42,3.4a.61.61,0,0,0,.09.46.44.44,0,0,0,.37.17.75.75,0,0,0,.24,0l.17-.07.13-.07a.24.24,0,0,1,.11,0,.16.16,0,0,1,.11,0,.44.44,0,0,1,.08.1l.36.73a2.65,2.65,0,0,1-.81.42,3,3,0,0,1-.9.14A1.47,1.47,0,0,1,146.15,56.68Z"/><text class="cls-9" transform="translate(173 19.47)">b<tspan class="cls-10" x="4.91" y="0">e</tspan><tspan class="cls-11" x="9.35" y="0">ta</tspan></text></g></g></svg>