<?xml version="1.0" encoding="UTF-8"?>
<svg width="25px" height="16px" viewBox="0 0 25 16" version="1.1" xmlns="http://www.w3.org/2000/svg" xmlns:xlink="http://www.w3.org/1999/xlink">
    <!-- Generator: Sketch 40.3 (33839) - http://www.bohemiancoding.com/sketch -->
    <title>googleplus black.1</title>
    <desc>Created with Sketch.</desc>
    <defs></defs>
    <g id="Page-1" stroke="none" stroke-width="1" fill="none" fill-rule="evenodd">
        <g id="Desktop-HD" transform="translate(-1011.000000, -5645.000000)" fill="#C6DBF4">
            <g id="Footer" transform="translate(0.000000, 5575.000000)">
                <g id="Social" transform="translate(885.000000, 70.000000)">
                    <g id="googleplus-black.1" transform="translate(126.000000, 0.000000)">
                        <g id="GooglePlus-black">
                            <g id="Icons">
                                <g id="Black">
                                    <path d="M22.2484277,6.57425752 L22.2484277,3.80198019 L20.2830189,3.80198019 L20.2830189,6.57425752 L17.4528303,6.57425752 L17.4528303,8.55445562 L20.2830189,8.55445562 L20.2830189,11.4059406 L22.2484277,11.4059406 L22.2484277,8.55445562 L25,8.55445562 L25,6.57425752 L22.2484277,6.57425752 L22.2484277,6.57425752 L22.2484277,6.57425752 Z M7.94025152,6.41584152 L7.94025152,9.58415848 C7.94025152,9.58415848 10.9908807,9.58003962 12.2330189,9.58003962 C11.5603773,11.6339802 10.5144655,12.7524754 7.94025152,12.7524754 C5.33514167,12.7524754 3.30188674,10.6247128 3.30188674,8 C3.30188674,5.37528724 5.33514167,3.24752457 7.94025152,3.24752457 C9.31761023,3.24752457 10.2071542,3.73528724 11.0231133,4.41512876 C11.676258,3.75706933 11.6216981,3.66328724 13.2834121,2.0822179 C11.8727989,0.788593905 9.99795606,0 7.94025152,0 C3.55495265,0 0,3.58170286 0,8 C0,12.4182179 3.55495265,16 7.94025152,16 C14.4950473,16 16.0971697,10.2495048 15.5660379,6.41584152 L7.94025152,6.41584152 L7.94025152,6.41584152 L7.94025152,6.41584152 Z" id="GooglePlus"></path>
                                </g>
                            </g>
                        </g>
                    </g>
                </g>
            </g>
        </g>
    </g>
</svg>