<?xml version="1.0" encoding="UTF-8"?>
<svg width="19px" height="16px" viewBox="0 0 19 16" version="1.1" xmlns="http://www.w3.org/2000/svg" xmlns:xlink="http://www.w3.org/1999/xlink">
    <!-- Generator: Sketch 40.3 (33839) - http://www.bohemiancoding.com/sketch -->
    <title>twitter black.1</title>
    <desc>Created with Sketch.</desc>
    <defs></defs>
    <g id="Page-1" stroke="none" stroke-width="1" fill="none" fill-rule="evenodd">
        <g id="Desktop-HD" transform="translate(-926.000000, -5645.000000)" fill="#C6DBF4">
            <g id="Footer" transform="translate(0.000000, 5575.000000)">
                <g id="Social" transform="translate(885.000000, 70.000000)">
                    <g id="twitter-black.1" transform="translate(41.000000, 0.000000)">
                        <g id="Twitter-black">
                            <g id="Icons">
                                <g id="Black">
                                    <path d="M19,1.8941132 C18.3018723,2.2153848 17.5502141,2.4326472 16.7617537,2.529722 C17.5669424,2.0304804 18.1847741,1.2388588 18.4758466,0.2958468 C17.7219583,0.7581076 16.888889,1.0944024 15.9989437,1.274684 C15.2896638,0.4899964 14.2759287,0 13.1540179,0 C11.0027587,0 9.25743967,1.8085952 9.25743967,4.0390032 C9.25743967,4.355652 9.29089629,4.6630552 9.35780954,4.958902 C6.11809579,4.7901768 3.24640492,3.1838208 1.32265056,0.737306 C0.986969646,1.3359336 0.795151583,2.0304804 0.795151583,2.7700976 C0.795151583,4.1707476 1.48324252,5.4072952 2.5293184,6.1318888 C1.89141279,6.1122428 1.28919394,5.928494 0.762810417,5.6280244 L0.762810417,5.6777176 C0.762810417,7.635392 2.10665033,9.268328 3.89100208,9.6381364 C3.56424246,9.7329 3.21963946,9.7802816 2.86388465,9.7802816 C2.61295996,9.7802816 2.36761177,9.7560132 2.13006981,9.7086312 C2.62634269,11.312676 4.06497637,12.48104 5.77126267,12.5122428 C4.4374595,13.596244 2.75570815,14.2422536 0.930093146,14.2422536 C0.615601188,14.2422536 0.304454813,14.2237632 0,14.1867824 C1.72524513,15.3308776 3.77501896,16 5.9753476,16 C13.1462112,16 17.0662089,9.846154 17.0662089,4.508198 C17.0662089,4.3325388 17.0628633,4.1568796 17.0561717,3.9846876 C17.8178671,3.4149512 18.4791922,2.7042252 19,1.8941132" id="Twitter"></path>
                                </g>
                            </g>
                        </g>
                    </g>
                </g>
            </g>
        </g>
    </g>
</svg>